<?xml version="1.0" encoding="UTF-8"?>
<svg xmlns="http://www.w3.org/2000/svg" xmlns:sb="http://simplector.lyoshka.net/base/2.0" xmlns:sp="http://simplector.lyoshka.net/pro/2.0"
    width="24.0px" height="24.0px" viewBox="0 0 24.0 24.0" sb:fontSize="Custom" sb:pageOrientation="Portrait"
    version="1.1" sb:version="2.0.19">
   <desc>Created in Simplector Pro</desc>
   <path
      id="87"
      transform="matrix(1.0,0.0,0.0,1.0,0.9999995,0.0)"
      fill="rgb(0,0,0)"
      fill-opacity="1.0"
      stroke-width="1.0"
      stroke-linecap="butt"
      stroke-linejoin="miter"
      stroke-miterlimit="2.0"
      stroke="rgb(0,0,0)"
      stroke-opacity="0.0"
      d="
      M 18.0 3.0 C 18.0 3.0 21.0 6.0 21.0 6.0 C 21.0 6.0 19.0 6.0 19.0 6.0 C 19.0 6.0 19.0 17.0 19.0 17.0 
      C 19.0 17.0 21.0 17.0 21.0 17.0 C 21.0 17.0 18.0 20.0 18.0 20.0 C 18.0 20.0 15.0 17.0 15.0 17.0 
      C 15.0 17.0 17.0 17.0 17.0 17.0 C 17.0 17.0 17.0 6.0 17.0 6.0 C 17.0 6.0 15.0 6.0 15.0 6.0 
      
      "

      sb:layerName="[BLine] [Path] RectFigure-85"
      sb:layerVisible="true"
      sb:layerLocked="false"
      sb:pathType="bline"
      >
   </path>
   <g
      id="95"

      sb:layerName="TextFigure-94"
      sb:layerVisible="true"
      sb:layerLocked="false"
      >
      <path
         id="96"
         transform="matrix(0.010619469,0.0,0.0,-0.010013352,1.2035395,18.78972)"
         fill="rgb(0,0,0)"
         fill-opacity="1.0"
         stroke-width="91.42857"
         stroke-linecap="butt"
         stroke-linejoin="miter"
         stroke-miterlimit="2.0"
         stroke="rgb(0,0,0)"
         stroke-opacity="0.0"
         d="
         M 913.0 380.0 Q 913.0 466.0 855.0 515.0 T 645.0 611.0 Q 380.0 687.0 250.0 788.0 T 119.0 1071.0 
         Q 119.0 1253.0 269.0 1365.0 T 661.0 1477.0 Q 906.0 1477.0 1055.0 1351.0 T 1205.0 1077.5333 
         L 922.49994 1077.5333 Q 913.0 1132.0 847.0 1193.0 T 657.0 1255.0 Q 537.0 1255.0 474.0 1204.0 
         T 411.0 1070.0 Q 411.0 994.0 478.0 948.0 T 716.0 848.0 Q 961.0 779.0 1083.0 672.0 
         T 1205.0 382.0 Q 1205.0 191.0 1060.0 85.0 T 668.0 -21.0 Q 425.0 -21.0 250.0 100.0 
         T 75.00003 378.4668 L 357.5 378.4668 Q 367.0 318.0 445.0 259.0 T 668.0 200.0 Q 790.0 200.0 851.0 248.0 
         T 913.0 380.0 Z 
         "

         sb:layerName="unit-0 (S)"
         sb:layerVisible="true"
         sb:layerLocked="false"
         sb:pathType="path"
         >
      </path>
   </g>
   <sp:keyframes

      sp:step="100"
      sp:dur="10000"
      >
      <sp:keyframe

         sp:time="0"
         >
      </sp:keyframe>
   </sp:keyframes>
</svg>
