<?xml version="1.0" encoding="UTF-8" standalone="no"?>
<svg xmlns:dc="http://purl.org/dc/elements/1.1/" xmlns:cc="http://creativecommons.org/ns#" xmlns:rdf="http://www.w3.org/1999/02/22-rdf-syntax-ns#"
    xmlns="http://www.w3.org/2000/svg" xmlns:sodipodi="http://sodipodi.sourceforge.net/DTD/sodipodi-0.dtd"
    xmlns:inkscape="http://www.inkscape.org/namespaces/inkscape" width="24" height="24" viewBox="0 0 24 24"
    id="svg3336" version="1.1" inkscape:version="0.91 r13725" sodipodi:docname="color_fill.svg">
  <metadata
     id="metadata3348">
    <rdf:RDF>
      <cc:Work
         rdf:about="">
        <dc:format>image/svg+xml</dc:format>
        <dc:type
           rdf:resource="http://purl.org/dc/dcmitype/StillImage" />
        <dc:title></dc:title>
      </cc:Work>
    </rdf:RDF>
  </metadata>
  <defs
     id="defs3346" />
  <sodipodi:namedview
     pagecolor="#ffffff"
     bordercolor="#666666"
     borderopacity="1"
     objecttolerance="10"
     gridtolerance="10"
     guidetolerance="10"
     inkscape:pageopacity="0"
     inkscape:pageshadow="2"
     inkscape:window-width="1920"
     inkscape:window-height="990"
     id="namedview3344"
     showgrid="false"
     inkscape:snap-nodes="false"
     inkscape:zoom="34.083333"
     inkscape:cx="7.5256724"
     inkscape:cy="12"
     inkscape:window-x="-4"
     inkscape:window-y="-4"
     inkscape:window-maximized="1"
     inkscape:current-layer="svg3336" />
  <path
     d="M0 0h24v24h-24z"
     fill="none"
     id="path3338" />
  <path
     d="M16.56 8.94l-8.94-8.94-1.41 1.41 2.38 2.38-5.15 5.15c-.59.59-.59 1.54 0 2.12l5.5 5.5c.29.29.68.44 1.06.44s.77-.15 1.06-.44l5.5-5.5c.59-.58.59-1.53 0-2.12zm-11.35 1.06l4.79-4.79 4.79 4.79h-9.58zm13.79 1.5s-2 2.17-2 3.5c0 1.1.9 2 2 2s2-.9 2-2c0-1.33-2-3.5-2-3.5z"
     id="path3340"
     style="fill:#ffffff;fill-opacity:1" />
  <path
fill="white"
     fill-opacity="0.5"
     d="M0 20h24v4h-24z"
     id="path3342" />
</svg>
