<?xml version="1.0" encoding="UTF-8"?>
<svg xmlns="http://www.w3.org/2000/svg" xmlns:sb="http://simplector.lyoshka.net/base/2.0" width="24.0px"
    height="24.0px" viewBox="0 0 24.0 24.0" sb:fontSize="Custom" sb:pageOrientation="Portrait"
    version="1.1" sb:version="2.0.19">
   <desc>Created in Simplector Pro</desc>
   <g
      id="74"

      sb:layerName="svg-74"
      sb:layerVisible="true"
      sb:layerLocked="false"
      >
      <path
         id="72"
         fill="rgb(255,255,255)"
         fill-opacity="1.0"
         stroke-width="1.0"
         stroke-linecap="butt"
         stroke-linejoin="miter"
         stroke-miterlimit="1.0"
         stroke="rgb(0,0,0)"
         stroke-opacity="0.0"
         d="
         M 3.0 21.0 L 21.0 21.0 L 21.0 19.0 L 3.0 19.0 L 3.0 21.0 Z M 9.0 17.0 L 21.0 17.0 
         L 21.0 15.0 L 9.0 15.0 L 9.0 17.0 Z M 3.0 13.0 L 21.0 13.0 L 21.0 11.0 L 3.0 11.0 
         L 3.0 13.0 Z M 9.0 9.0 L 21.0 9.0 L 21.0 7.0 L 9.0 7.0 L 9.0 9.0 Z M 3.0 3.0 L 3.0 5.0 
         L 21.0 5.0 L 21.0 3.0 L 3.0 3.0 Z 
         "

         sb:layerName="path-72"
         sb:layerVisible="true"
         sb:layerLocked="false"
         sb:pathType="path"
         >
      </path>
      <path
         id="73"
         fill="rgb(0,0,0)"
         fill-opacity="0.0"
         stroke-width="1.0"
         stroke-linecap="butt"
         stroke-linejoin="miter"
         stroke-miterlimit="1.0"
         stroke="rgb(0,0,0)"
         stroke-opacity="0.0"
         d="
         M 0.0 0.0 L 24.0 0.0 L 24.0 24.0 L 0.0 24.0 Z 
         "

         sb:layerName="path-73"
         sb:layerVisible="true"
         sb:layerLocked="false"
         sb:pathType="path"
         >
      </path>
   </g>
</svg>
