<?xml version="1.0" encoding="UTF-8" standalone="no"?>
<svg xmlns:dc="http://purl.org/dc/elements/1.1/" xmlns:cc="http://creativecommons.org/ns#" xmlns:rdf="http://www.w3.org/1999/02/22-rdf-syntax-ns#"
    xmlns="http://www.w3.org/2000/svg" xmlns:sodipodi="http://sodipodi.sourceforge.net/DTD/sodipodi-0.dtd"
    xmlns:inkscape="http://www.inkscape.org/namespaces/inkscape" width="24" height="24" viewBox="0 0 24 24"
    id="svg4136" version="1.1" inkscape:version="0.91 r13725" sodipodi:docname="spoiler.svg">
  <metadata
     id="metadata4146">
    <rdf:RDF>
      <cc:Work
         rdf:about="">
        <dc:format>image/svg+xml</dc:format>
        <dc:type
           rdf:resource="http://purl.org/dc/dcmitype/StillImage" />
        <dc:title></dc:title>
      </cc:Work>
    </rdf:RDF>
  </metadata>
  <defs
     id="defs4144" />
  <sodipodi:namedview
     pagecolor="#ffffff"
     bordercolor="#666666"
     borderopacity="1"
     objecttolerance="10"
     gridtolerance="10"
     guidetolerance="10"
     inkscape:pageopacity="0"
     inkscape:pageshadow="2"
     inkscape:window-width="1920"
     inkscape:window-height="990"
     id="namedview4142"
     showgrid="false"
     inkscape:zoom="34.125"
     inkscape:cx="12"
     inkscape:cy="12"
     inkscape:window-x="-4"
     inkscape:window-y="-4"
     inkscape:window-maximized="1"
     inkscape:current-layer="svg4136" />
  <path
     d="M0 0h24v24h-24zm0 0h24v24h-24z"
     fill="none"
     id="path4138" />
  <path
     d="M19 3h-14c-1.1 0-2 .9-2 2v14c0 1.1.9 2 2 2h14c1.1 0 2-.9 2-2v-14c0-1.1-.9-2-2-2zm-13.5 4.5h2v-2h1.5v2h2v1.5h-2v2h-1.5v-2h-2v-1.5zm13.5 11.5h-14l14-14v14zm-2-2v-1.5h-5v1.5h5z"
     id="path4140"
     style="fill:#ffffff;fill-opacity:1" />
</svg>
