<?xml version="1.0" encoding="UTF-8"?>
<svg xmlns="http://www.w3.org/2000/svg" xmlns:sb="http://simplector.lyoshka.net/base/2.0" xmlns:sp="http://simplector.lyoshka.net/pro/2.0"
    width="24.0px" height="24.0px" viewBox="0 0 24.0 24.0" sb:fontSize="Custom" sb:pageOrientation="Portrait"
    version="1.1" sb:version="2.0.19">
   <desc>Created in Simplector Pro</desc>
   <path
      id="5"
      fill="rgb(255,255,255)"
      fill-opacity="1.0"
      stroke-width="1.0"
      stroke-linecap="butt"
      stroke-linejoin="miter"
      stroke-miterlimit="1.0"
      stroke="rgb(0,0,0)"
      stroke-opacity="0.0"
      d="
      M 3.9 12.0 C 3.9 10.29 5.29 8.9 7.0 8.9 L 11.0 8.9 L 11.0 6.9999995 L 7.0 6.9999995 
      C 4.24 6.9999995 2.0 9.24 2.0 12.0 S 4.24 17.0 7.0 17.0 L 11.0 17.0 L 11.0 15.1 L 7.0 15.1 
      C 5.29 15.1 3.9 13.71 3.9 12.0 Z M 8.0 13.0 L 16.0 13.0 L 16.0 11.0 L 8.0 11.0 L 8.0 13.0 
      Z M 17.0 7.0 L 13.0 7.0 L 13.0 8.9 L 17.0 8.9 C 18.71 8.9 20.1 10.29 20.1 12.0 S 18.710001 15.1 17.0 15.1 
      L 13.0 15.1 L 13.0 17.0 L 17.0 17.0 C 19.76 17.0 22.0 14.76 22.0 12.0 S 19.76 7.0 17.0 7.0 
      Z 
      "

      sb:layerName="path-5"
      sb:layerVisible="true"
      sb:layerLocked="false"
      sb:pathType="path"
      >
   </path>
   <sp:keyframes

      sp:step="100"
      sp:dur="10000"
      >
      <sp:keyframe

         sp:time="0"
         >
      </sp:keyframe>
   </sp:keyframes>
</svg>
