<?xml version="1.0" encoding="UTF-8"?>
<svg xmlns="http://www.w3.org/2000/svg" xmlns:sb="http://simplector.lyoshka.net/base/2.0" xmlns:sp="http://simplector.lyoshka.net/pro/2.0"
    width="24.0px" height="24.0px" viewBox="0 0 24.0 24.0" sb:fontSize="Custom" sb:pageOrientation="Portrait"
    version="1.1" sb:version="2.0.19">
   <desc>Created in Simplector Pro</desc>
   <path
      id="4"
      fill="rgb(138,138,138)"
      fill-opacity="1.0"
      stroke-width="4.0"
      stroke-linecap="butt"
      stroke-linejoin="miter"
      stroke-miterlimit="1.0"
      stroke="rgb(0,0,0)"
      stroke-opacity="0.0"
      d="
      M 16.5 6.0 L 16.5 17.5 C 16.5 19.71 14.71 21.5 12.5 21.5 S 8.5 19.71 8.5 17.5 L 8.5 5.0 
      C 8.5 3.62 9.62 2.5 11.0 2.5 S 13.5 3.62 13.5 5.0 L 13.5 15.5 C 13.5 16.05 13.05 16.5 12.5 16.5 
      S 11.5 16.05 11.5 15.5 L 11.5 6.0 L 10.0 6.0 L 10.0 15.5 C 10.0 16.88 11.12 18.0 12.5 18.0 
      S 15.0 16.88 15.0 15.5 L 15.0 5.0 C 15.0 2.79 13.21 1.0 11.0 1.0 S 7.0 2.79 7.0 5.0 
      L 7.0 17.5 C 7.0 20.54 9.46 23.0 12.5 23.0 S 18.0 20.54 18.0 17.5 L 18.0 6.0 L 16.5 6.0 
      Z 
      "

      sb:layerName="path-4"
      sb:layerVisible="true"
      sb:layerLocked="false"
      sb:pathType="path"
      >
   </path>
   <sp:keyframes

      sp:step="100"
      sp:dur="10000"
      >
      <sp:keyframe

         sp:time="0"
         >
      </sp:keyframe>
   </sp:keyframes>
</svg>
